<mxfile host="app.diagrams.net" modified="2023-05-06T20:07:50.934Z" agent="Mozilla/5.0 (X11; Linux x86_64) AppleWebKit/537.36 (KHTML, like Gecko) Chrome/113.0.0.0 Safari/537.36" etag="BkebgIE7lOX4qVo9ZGHq" version="21.2.9" type="device">
  <diagram name="Page-1" id="2YBvvXClWsGukQMizWep">
    <mxGraphModel dx="3493" dy="-215" grid="1" gridSize="10" guides="1" tooltips="1" connect="1" arrows="1" fold="1" page="1" pageScale="1" pageWidth="850" pageHeight="1100" math="0" shadow="0">
      <root>
        <mxCell id="0" />
        <mxCell id="1" parent="0" />
        <mxCell id="DLuYWQSgHfZuUuBgVUwF-1" value="Διευθυντής" style="shape=umlActor;verticalLabelPosition=bottom;verticalAlign=top;html=1;" vertex="1" parent="1">
          <mxGeometry x="-800" y="1320" width="30" height="60" as="geometry" />
        </mxCell>
        <mxCell id="DLuYWQSgHfZuUuBgVUwF-2" value="Αρχική οθόνη διευθυντή" style="shape=umlBoundary;whiteSpace=wrap;html=1;" vertex="1" parent="1">
          <mxGeometry x="-680" y="1160" width="100" height="80" as="geometry" />
        </mxCell>
        <mxCell id="DLuYWQSgHfZuUuBgVUwF-3" value=":Object" style="shape=umlLifeline;perimeter=lifelinePerimeter;whiteSpace=wrap;html=1;container=1;dropTarget=0;collapsible=0;recursiveResize=0;outlineConnect=0;portConstraint=eastwest;newEdgeStyle={&quot;edgeStyle&quot;:&quot;elbowEdgeStyle&quot;,&quot;elbow&quot;:&quot;vertical&quot;,&quot;curved&quot;:0,&quot;rounded&quot;:0};" vertex="1" parent="1">
          <mxGeometry x="-680" y="1320" width="100" height="940" as="geometry" />
        </mxCell>
        <mxCell id="DLuYWQSgHfZuUuBgVUwF-16" value="" style="html=1;points=[];perimeter=orthogonalPerimeter;outlineConnect=0;targetShapes=umlLifeline;portConstraint=eastwest;newEdgeStyle={&quot;edgeStyle&quot;:&quot;elbowEdgeStyle&quot;,&quot;elbow&quot;:&quot;vertical&quot;,&quot;curved&quot;:0,&quot;rounded&quot;:0};" vertex="1" parent="DLuYWQSgHfZuUuBgVUwF-3">
          <mxGeometry x="45" y="120" width="10" height="80" as="geometry" />
        </mxCell>
        <mxCell id="DLuYWQSgHfZuUuBgVUwF-4" value="Οθόνη με τους μαθητές και το σύνολο των απουσιών τους" style="shape=umlBoundary;whiteSpace=wrap;html=1;" vertex="1" parent="1">
          <mxGeometry x="-470" y="1155" width="130" height="90" as="geometry" />
        </mxCell>
        <mxCell id="DLuYWQSgHfZuUuBgVUwF-5" value=":Object" style="shape=umlLifeline;perimeter=lifelinePerimeter;whiteSpace=wrap;html=1;container=1;dropTarget=0;collapsible=0;recursiveResize=0;outlineConnect=0;portConstraint=eastwest;newEdgeStyle={&quot;edgeStyle&quot;:&quot;elbowEdgeStyle&quot;,&quot;elbow&quot;:&quot;vertical&quot;,&quot;curved&quot;:0,&quot;rounded&quot;:0};" vertex="1" parent="1">
          <mxGeometry x="-440" y="1320" width="100" height="940" as="geometry" />
        </mxCell>
        <mxCell id="DLuYWQSgHfZuUuBgVUwF-18" value="" style="html=1;points=[];perimeter=orthogonalPerimeter;outlineConnect=0;targetShapes=umlLifeline;portConstraint=eastwest;newEdgeStyle={&quot;edgeStyle&quot;:&quot;elbowEdgeStyle&quot;,&quot;elbow&quot;:&quot;vertical&quot;,&quot;curved&quot;:0,&quot;rounded&quot;:0};" vertex="1" parent="DLuYWQSgHfZuUuBgVUwF-5">
          <mxGeometry x="45" y="180" width="10" height="80" as="geometry" />
        </mxCell>
        <mxCell id="DLuYWQSgHfZuUuBgVUwF-61" value="" style="html=1;points=[];perimeter=orthogonalPerimeter;outlineConnect=0;targetShapes=umlLifeline;portConstraint=eastwest;newEdgeStyle={&quot;edgeStyle&quot;:&quot;elbowEdgeStyle&quot;,&quot;elbow&quot;:&quot;vertical&quot;,&quot;curved&quot;:0,&quot;rounded&quot;:0};" vertex="1" parent="DLuYWQSgHfZuUuBgVUwF-5">
          <mxGeometry x="45" y="820" width="10" height="20" as="geometry" />
        </mxCell>
        <mxCell id="DLuYWQSgHfZuUuBgVUwF-6" value="Ημερολόγιο με τις συνολικές απουσίες&lt;br&gt;του μαθητή" style="shape=umlBoundary;whiteSpace=wrap;html=1;" vertex="1" parent="1">
          <mxGeometry x="-90" y="1155" width="130" height="90" as="geometry" />
        </mxCell>
        <mxCell id="DLuYWQSgHfZuUuBgVUwF-7" value=":Object" style="shape=umlLifeline;perimeter=lifelinePerimeter;whiteSpace=wrap;html=1;container=1;dropTarget=0;collapsible=0;recursiveResize=0;outlineConnect=0;portConstraint=eastwest;newEdgeStyle={&quot;edgeStyle&quot;:&quot;elbowEdgeStyle&quot;,&quot;elbow&quot;:&quot;vertical&quot;,&quot;curved&quot;:0,&quot;rounded&quot;:0};" vertex="1" parent="1">
          <mxGeometry x="-70" y="1320" width="100" height="940" as="geometry" />
        </mxCell>
        <mxCell id="DLuYWQSgHfZuUuBgVUwF-24" value="" style="html=1;points=[];perimeter=orthogonalPerimeter;outlineConnect=0;targetShapes=umlLifeline;portConstraint=eastwest;newEdgeStyle={&quot;edgeStyle&quot;:&quot;elbowEdgeStyle&quot;,&quot;elbow&quot;:&quot;vertical&quot;,&quot;curved&quot;:0,&quot;rounded&quot;:0};" vertex="1" parent="DLuYWQSgHfZuUuBgVUwF-7">
          <mxGeometry x="45" y="310" width="10" height="110" as="geometry" />
        </mxCell>
        <mxCell id="DLuYWQSgHfZuUuBgVUwF-8" value="Φόρμα συμπλήρωσης απουσιών" style="shape=umlBoundary;whiteSpace=wrap;html=1;" vertex="1" parent="1">
          <mxGeometry x="100" y="1155" width="130" height="90" as="geometry" />
        </mxCell>
        <mxCell id="DLuYWQSgHfZuUuBgVUwF-9" value=":Object" style="shape=umlLifeline;perimeter=lifelinePerimeter;whiteSpace=wrap;html=1;container=1;dropTarget=0;collapsible=0;recursiveResize=0;outlineConnect=0;portConstraint=eastwest;newEdgeStyle={&quot;edgeStyle&quot;:&quot;elbowEdgeStyle&quot;,&quot;elbow&quot;:&quot;vertical&quot;,&quot;curved&quot;:0,&quot;rounded&quot;:0};" vertex="1" parent="1">
          <mxGeometry x="120" y="1320" width="100" height="940" as="geometry" />
        </mxCell>
        <mxCell id="DLuYWQSgHfZuUuBgVUwF-27" value="" style="html=1;points=[];perimeter=orthogonalPerimeter;outlineConnect=0;targetShapes=umlLifeline;portConstraint=eastwest;newEdgeStyle={&quot;edgeStyle&quot;:&quot;elbowEdgeStyle&quot;,&quot;elbow&quot;:&quot;vertical&quot;,&quot;curved&quot;:0,&quot;rounded&quot;:0};" vertex="1" parent="DLuYWQSgHfZuUuBgVUwF-9">
          <mxGeometry x="45" y="350" width="10" height="190" as="geometry" />
        </mxCell>
        <mxCell id="DLuYWQSgHfZuUuBgVUwF-10" value="Τελική υποβολή" style="shape=umlBoundary;whiteSpace=wrap;html=1;" vertex="1" parent="1">
          <mxGeometry x="370" y="1160" width="95" height="80" as="geometry" />
        </mxCell>
        <mxCell id="DLuYWQSgHfZuUuBgVUwF-11" value="Απουσίες" style="ellipse;shape=umlEntity;whiteSpace=wrap;html=1;" vertex="1" parent="1">
          <mxGeometry x="610" y="1160" width="80" height="80" as="geometry" />
        </mxCell>
        <mxCell id="DLuYWQSgHfZuUuBgVUwF-12" value=":Object" style="shape=umlLifeline;perimeter=lifelinePerimeter;whiteSpace=wrap;html=1;container=1;dropTarget=0;collapsible=0;recursiveResize=0;outlineConnect=0;portConstraint=eastwest;newEdgeStyle={&quot;edgeStyle&quot;:&quot;elbowEdgeStyle&quot;,&quot;elbow&quot;:&quot;vertical&quot;,&quot;curved&quot;:0,&quot;rounded&quot;:0};" vertex="1" parent="1">
          <mxGeometry x="375" y="1320" width="100" height="940" as="geometry" />
        </mxCell>
        <mxCell id="DLuYWQSgHfZuUuBgVUwF-13" value=":Object" style="shape=umlLifeline;perimeter=lifelinePerimeter;whiteSpace=wrap;html=1;container=1;dropTarget=0;collapsible=0;recursiveResize=0;outlineConnect=0;portConstraint=eastwest;newEdgeStyle={&quot;edgeStyle&quot;:&quot;elbowEdgeStyle&quot;,&quot;elbow&quot;:&quot;vertical&quot;,&quot;curved&quot;:0,&quot;rounded&quot;:0};" vertex="1" parent="1">
          <mxGeometry x="600" y="1320" width="100" height="940" as="geometry" />
        </mxCell>
        <mxCell id="DLuYWQSgHfZuUuBgVUwF-57" value="" style="html=1;points=[];perimeter=orthogonalPerimeter;outlineConnect=0;targetShapes=umlLifeline;portConstraint=eastwest;newEdgeStyle={&quot;edgeStyle&quot;:&quot;elbowEdgeStyle&quot;,&quot;elbow&quot;:&quot;vertical&quot;,&quot;curved&quot;:0,&quot;rounded&quot;:0};" vertex="1" parent="DLuYWQSgHfZuUuBgVUwF-13">
          <mxGeometry x="45" y="707.5" width="10" height="45" as="geometry" />
        </mxCell>
        <mxCell id="DLuYWQSgHfZuUuBgVUwF-14" value="" style="html=1;points=[];perimeter=orthogonalPerimeter;outlineConnect=0;targetShapes=umlLifeline;portConstraint=eastwest;newEdgeStyle={&quot;edgeStyle&quot;:&quot;elbowEdgeStyle&quot;,&quot;elbow&quot;:&quot;vertical&quot;,&quot;curved&quot;:0,&quot;rounded&quot;:0};" vertex="1" parent="1">
          <mxGeometry x="-790" y="1430" width="10" height="830" as="geometry" />
        </mxCell>
        <mxCell id="DLuYWQSgHfZuUuBgVUwF-15" value="click &quot;αρχείο απουσιών&quot;" style="html=1;verticalAlign=bottom;endArrow=block;edgeStyle=elbowEdgeStyle;elbow=vertical;curved=0;rounded=0;" edge="1" parent="1" target="DLuYWQSgHfZuUuBgVUwF-16">
          <mxGeometry width="80" relative="1" as="geometry">
            <mxPoint x="-780" y="1450" as="sourcePoint" />
            <mxPoint x="-630" y="1450" as="targetPoint" />
            <mxPoint as="offset" />
          </mxGeometry>
        </mxCell>
        <mxCell id="DLuYWQSgHfZuUuBgVUwF-17" value="display()" style="html=1;verticalAlign=bottom;endArrow=block;edgeStyle=elbowEdgeStyle;elbow=vertical;curved=0;rounded=0;" edge="1" parent="1" source="DLuYWQSgHfZuUuBgVUwF-16" target="DLuYWQSgHfZuUuBgVUwF-18">
          <mxGeometry width="80" relative="1" as="geometry">
            <mxPoint x="-610" y="1490" as="sourcePoint" />
            <mxPoint x="-530" y="1490" as="targetPoint" />
          </mxGeometry>
        </mxCell>
        <mxCell id="DLuYWQSgHfZuUuBgVUwF-19" value="choose student" style="html=1;verticalAlign=bottom;endArrow=block;edgeStyle=elbowEdgeStyle;elbow=vertical;curved=0;rounded=0;" edge="1" parent="1" source="DLuYWQSgHfZuUuBgVUwF-14" target="DLuYWQSgHfZuUuBgVUwF-20">
          <mxGeometry width="80" relative="1" as="geometry">
            <mxPoint x="-770" y="1620" as="sourcePoint" />
            <mxPoint x="-700" y="1630" as="targetPoint" />
            <Array as="points">
              <mxPoint x="-240" y="1610" />
            </Array>
          </mxGeometry>
        </mxCell>
        <mxCell id="DLuYWQSgHfZuUuBgVUwF-21" value="Μαθητής" style="ellipse;shape=umlEntity;whiteSpace=wrap;html=1;" vertex="1" parent="1">
          <mxGeometry x="-230" y="1160" width="80" height="80" as="geometry" />
        </mxCell>
        <mxCell id="DLuYWQSgHfZuUuBgVUwF-22" value=":Object" style="shape=umlLifeline;perimeter=lifelinePerimeter;whiteSpace=wrap;html=1;container=1;dropTarget=0;collapsible=0;recursiveResize=0;outlineConnect=0;portConstraint=eastwest;newEdgeStyle={&quot;edgeStyle&quot;:&quot;elbowEdgeStyle&quot;,&quot;elbow&quot;:&quot;vertical&quot;,&quot;curved&quot;:0,&quot;rounded&quot;:0};size=40;" vertex="1" parent="1">
          <mxGeometry x="-240" y="1320" width="100" height="940" as="geometry" />
        </mxCell>
        <mxCell id="DLuYWQSgHfZuUuBgVUwF-20" value="" style="html=1;points=[];perimeter=orthogonalPerimeter;outlineConnect=0;targetShapes=umlLifeline;portConstraint=eastwest;newEdgeStyle={&quot;edgeStyle&quot;:&quot;elbowEdgeStyle&quot;,&quot;elbow&quot;:&quot;vertical&quot;,&quot;curved&quot;:0,&quot;rounded&quot;:0};" vertex="1" parent="DLuYWQSgHfZuUuBgVUwF-22">
          <mxGeometry x="45" y="280" width="10" height="80" as="geometry" />
        </mxCell>
        <mxCell id="DLuYWQSgHfZuUuBgVUwF-23" value="displayInCalendar()" style="html=1;verticalAlign=bottom;endArrow=block;edgeStyle=elbowEdgeStyle;elbow=vertical;curved=0;rounded=0;" edge="1" parent="1" source="DLuYWQSgHfZuUuBgVUwF-20" target="DLuYWQSgHfZuUuBgVUwF-24">
          <mxGeometry width="80" relative="1" as="geometry">
            <mxPoint x="-170" y="1650" as="sourcePoint" />
            <mxPoint x="-90" y="1650" as="targetPoint" />
          </mxGeometry>
        </mxCell>
        <mxCell id="DLuYWQSgHfZuUuBgVUwF-25" value="choose add&amp;nbsp;" style="html=1;verticalAlign=bottom;endArrow=block;edgeStyle=elbowEdgeStyle;elbow=vertical;curved=0;rounded=0;" edge="1" parent="1" source="DLuYWQSgHfZuUuBgVUwF-14" target="DLuYWQSgHfZuUuBgVUwF-24">
          <mxGeometry width="80" relative="1" as="geometry">
            <mxPoint x="-780" y="1700" as="sourcePoint" />
            <mxPoint x="-700" y="1700" as="targetPoint" />
            <Array as="points">
              <mxPoint x="-70" y="1690" />
            </Array>
          </mxGeometry>
        </mxCell>
        <mxCell id="DLuYWQSgHfZuUuBgVUwF-26" value="displayDataField()" style="html=1;verticalAlign=bottom;endArrow=block;edgeStyle=elbowEdgeStyle;elbow=vertical;curved=0;rounded=0;" edge="1" parent="1" source="DLuYWQSgHfZuUuBgVUwF-24" target="DLuYWQSgHfZuUuBgVUwF-27">
          <mxGeometry width="80" relative="1" as="geometry">
            <mxPoint x="10" y="1710" as="sourcePoint" />
            <mxPoint x="90" y="1710" as="targetPoint" />
          </mxGeometry>
        </mxCell>
        <mxCell id="DLuYWQSgHfZuUuBgVUwF-28" value="addNumberOfAbcenses()" style="html=1;verticalAlign=bottom;endArrow=block;edgeStyle=elbowEdgeStyle;elbow=vertical;curved=0;rounded=0;" edge="1" parent="1" source="DLuYWQSgHfZuUuBgVUwF-27" target="DLuYWQSgHfZuUuBgVUwF-14">
          <mxGeometry width="80" relative="1" as="geometry">
            <mxPoint x="60" y="1790" as="sourcePoint" />
            <mxPoint x="140" y="1790" as="targetPoint" />
            <Array as="points">
              <mxPoint x="-440" y="1760" />
            </Array>
          </mxGeometry>
        </mxCell>
        <mxCell id="DLuYWQSgHfZuUuBgVUwF-29" value="add the number&amp;nbsp;" style="html=1;verticalAlign=bottom;endArrow=block;edgeStyle=elbowEdgeStyle;elbow=vertical;curved=0;rounded=0;" edge="1" parent="1" source="DLuYWQSgHfZuUuBgVUwF-14" target="DLuYWQSgHfZuUuBgVUwF-27">
          <mxGeometry width="80" relative="1" as="geometry">
            <mxPoint x="-760" y="1790" as="sourcePoint" />
            <mxPoint x="-680" y="1790" as="targetPoint" />
            <Array as="points">
              <mxPoint x="50" y="1780" />
            </Array>
          </mxGeometry>
        </mxCell>
        <mxCell id="DLuYWQSgHfZuUuBgVUwF-30" value="optional" style="shape=umlFrame;whiteSpace=wrap;html=1;pointerEvents=0;strokeWidth=2;" vertex="1" parent="1">
          <mxGeometry x="-880" y="1800" width="1110" height="80" as="geometry" />
        </mxCell>
        <mxCell id="DLuYWQSgHfZuUuBgVUwF-31" value="Add &lt;br&gt;description" style="text;html=1;align=center;verticalAlign=middle;resizable=0;points=[];autosize=1;strokeColor=none;fillColor=none;" vertex="1" parent="1">
          <mxGeometry x="-880" y="1833" width="80" height="40" as="geometry" />
        </mxCell>
        <mxCell id="DLuYWQSgHfZuUuBgVUwF-32" value="add description" style="html=1;verticalAlign=bottom;endArrow=block;edgeStyle=elbowEdgeStyle;elbow=vertical;curved=0;rounded=0;" edge="1" parent="1" source="DLuYWQSgHfZuUuBgVUwF-14" target="DLuYWQSgHfZuUuBgVUwF-27">
          <mxGeometry width="80" relative="1" as="geometry">
            <mxPoint x="-770" y="1840" as="sourcePoint" />
            <mxPoint x="-690" y="1840" as="targetPoint" />
            <Array as="points">
              <mxPoint x="70" y="1830" />
            </Array>
          </mxGeometry>
        </mxCell>
        <mxCell id="DLuYWQSgHfZuUuBgVUwF-33" value="alternative" style="shape=umlFrame;whiteSpace=wrap;html=1;pointerEvents=0;strokeWidth=2;" vertex="1" parent="1">
          <mxGeometry x="-950" y="1930" width="1670" height="330" as="geometry" />
        </mxCell>
        <mxCell id="DLuYWQSgHfZuUuBgVUwF-35" value="oristiki &lt;br&gt;ypoboli" style="text;html=1;align=center;verticalAlign=middle;resizable=0;points=[];autosize=1;strokeColor=none;fillColor=none;" vertex="1" parent="1">
          <mxGeometry x="-950" y="1970" width="60" height="40" as="geometry" />
        </mxCell>
        <mxCell id="DLuYWQSgHfZuUuBgVUwF-37" value="decline" style="text;html=1;align=center;verticalAlign=middle;resizable=0;points=[];autosize=1;strokeColor=none;fillColor=none;" vertex="1" parent="1">
          <mxGeometry x="-950" y="2180" width="60" height="30" as="geometry" />
        </mxCell>
        <mxCell id="DLuYWQSgHfZuUuBgVUwF-46" value="submit" style="html=1;verticalAlign=bottom;endArrow=block;edgeStyle=elbowEdgeStyle;elbow=vertical;curved=0;rounded=0;" edge="1" parent="1" source="DLuYWQSgHfZuUuBgVUwF-47" target="DLuYWQSgHfZuUuBgVUwF-12">
          <mxGeometry x="1" y="-719" width="80" relative="1" as="geometry">
            <mxPoint x="-770" y="1960" as="sourcePoint" />
            <mxPoint x="-690" y="1960" as="targetPoint" />
            <Array as="points" />
            <mxPoint x="-714" y="639" as="offset" />
          </mxGeometry>
        </mxCell>
        <mxCell id="DLuYWQSgHfZuUuBgVUwF-48" value="" style="html=1;verticalAlign=bottom;endArrow=block;edgeStyle=elbowEdgeStyle;elbow=vertical;curved=0;rounded=0;" edge="1" parent="1" source="DLuYWQSgHfZuUuBgVUwF-14" target="DLuYWQSgHfZuUuBgVUwF-47">
          <mxGeometry width="80" relative="1" as="geometry">
            <mxPoint x="-780" y="1970" as="sourcePoint" />
            <mxPoint x="425" y="1970" as="targetPoint" />
            <Array as="points">
              <mxPoint x="200" y="1970" />
            </Array>
          </mxGeometry>
        </mxCell>
        <mxCell id="DLuYWQSgHfZuUuBgVUwF-47" value="" style="html=1;points=[];perimeter=orthogonalPerimeter;outlineConnect=0;targetShapes=umlLifeline;portConstraint=eastwest;newEdgeStyle={&quot;edgeStyle&quot;:&quot;elbowEdgeStyle&quot;,&quot;elbow&quot;:&quot;vertical&quot;,&quot;curved&quot;:0,&quot;rounded&quot;:0};" vertex="1" parent="1">
          <mxGeometry x="420" y="1950" width="10" height="210" as="geometry" />
        </mxCell>
        <mxCell id="DLuYWQSgHfZuUuBgVUwF-49" value="" style="shape=umlDestroy;whiteSpace=wrap;html=1;strokeWidth=3;targetShapes=umlLifeline;" vertex="1" parent="1">
          <mxGeometry x="161.25" y="2210" width="17.5" height="20" as="geometry" />
        </mxCell>
        <mxCell id="DLuYWQSgHfZuUuBgVUwF-50" value="alternative" style="shape=umlFrame;whiteSpace=wrap;html=1;pointerEvents=0;strokeWidth=2;" vertex="1" parent="1">
          <mxGeometry x="-880" y="2020" width="1590" height="140" as="geometry" />
        </mxCell>
        <mxCell id="DLuYWQSgHfZuUuBgVUwF-51" value="" style="html=1;verticalAlign=bottom;endArrow=block;edgeStyle=elbowEdgeStyle;elbow=vertical;curved=0;rounded=0;" edge="1" parent="1" source="DLuYWQSgHfZuUuBgVUwF-14" target="DLuYWQSgHfZuUuBgVUwF-40">
          <mxGeometry x="0.0321" width="80" relative="1" as="geometry">
            <mxPoint x="-780" y="2190" as="sourcePoint" />
            <mxPoint x="170" y="2190" as="targetPoint" />
            <Array as="points">
              <mxPoint x="-510" y="2190" />
            </Array>
            <mxPoint as="offset" />
          </mxGeometry>
        </mxCell>
        <mxCell id="DLuYWQSgHfZuUuBgVUwF-40" value="" style="html=1;points=[];perimeter=orthogonalPerimeter;outlineConnect=0;targetShapes=umlLifeline;portConstraint=eastwest;newEdgeStyle={&quot;edgeStyle&quot;:&quot;elbowEdgeStyle&quot;,&quot;elbow&quot;:&quot;vertical&quot;,&quot;curved&quot;:0,&quot;rounded&quot;:0};" vertex="1" parent="1">
          <mxGeometry x="165" y="2190" width="10" height="10" as="geometry" />
        </mxCell>
        <mxCell id="DLuYWQSgHfZuUuBgVUwF-52" value="" style="endArrow=none;dashed=1;html=1;rounded=0;exitX=0.002;exitY=0.712;exitDx=0;exitDy=0;exitPerimeter=0;entryX=1;entryY=0.727;entryDx=0;entryDy=0;entryPerimeter=0;" edge="1" parent="1" source="DLuYWQSgHfZuUuBgVUwF-33" target="DLuYWQSgHfZuUuBgVUwF-33">
          <mxGeometry width="50" height="50" relative="1" as="geometry">
            <mxPoint x="-840" y="2210" as="sourcePoint" />
            <mxPoint x="-790" y="2160" as="targetPoint" />
          </mxGeometry>
        </mxCell>
        <mxCell id="DLuYWQSgHfZuUuBgVUwF-53" value="" style="endArrow=none;dashed=1;html=1;rounded=0;exitX=0;exitY=0.5;exitDx=0;exitDy=0;exitPerimeter=0;entryX=1;entryY=0.5;entryDx=0;entryDy=0;entryPerimeter=0;" edge="1" parent="1" source="DLuYWQSgHfZuUuBgVUwF-50" target="DLuYWQSgHfZuUuBgVUwF-50">
          <mxGeometry width="50" height="50" relative="1" as="geometry">
            <mxPoint x="-870" y="2090" as="sourcePoint" />
            <mxPoint x="-820" y="2040" as="targetPoint" />
          </mxGeometry>
        </mxCell>
        <mxCell id="DLuYWQSgHfZuUuBgVUwF-54" value="&amp;lt;= max" style="text;html=1;align=center;verticalAlign=middle;resizable=0;points=[];autosize=1;strokeColor=none;fillColor=none;" vertex="1" parent="1">
          <mxGeometry x="-880" y="2050" width="60" height="30" as="geometry" />
        </mxCell>
        <mxCell id="DLuYWQSgHfZuUuBgVUwF-55" value="&amp;gt;= max" style="text;html=1;align=center;verticalAlign=middle;resizable=0;points=[];autosize=1;strokeColor=none;fillColor=none;" vertex="1" parent="1">
          <mxGeometry x="-880" y="2110" width="60" height="30" as="geometry" />
        </mxCell>
        <mxCell id="DLuYWQSgHfZuUuBgVUwF-56" value="update()" style="html=1;verticalAlign=bottom;endArrow=block;edgeStyle=elbowEdgeStyle;elbow=vertical;curved=0;rounded=0;" edge="1" parent="1" source="DLuYWQSgHfZuUuBgVUwF-47" target="DLuYWQSgHfZuUuBgVUwF-57">
          <mxGeometry width="80" relative="1" as="geometry">
            <mxPoint x="430" y="2060" as="sourcePoint" />
            <mxPoint x="510" y="2060" as="targetPoint" />
            <Array as="points">
              <mxPoint x="580" y="2040" />
            </Array>
          </mxGeometry>
        </mxCell>
        <mxCell id="DLuYWQSgHfZuUuBgVUwF-58" value="failureMessage()" style="html=1;verticalAlign=bottom;endArrow=block;edgeStyle=elbowEdgeStyle;elbow=vertical;curved=0;rounded=0;" edge="1" parent="1" source="DLuYWQSgHfZuUuBgVUwF-47" target="DLuYWQSgHfZuUuBgVUwF-14">
          <mxGeometry x="-0.0167" width="80" relative="1" as="geometry">
            <mxPoint x="280" y="2110" as="sourcePoint" />
            <mxPoint x="360" y="2110" as="targetPoint" />
            <Array as="points">
              <mxPoint x="-700" y="2110" />
            </Array>
            <mxPoint as="offset" />
          </mxGeometry>
        </mxCell>
        <mxCell id="DLuYWQSgHfZuUuBgVUwF-59" value="choose return" style="html=1;verticalAlign=bottom;endArrow=block;edgeStyle=elbowEdgeStyle;elbow=vertical;curved=0;rounded=0;" edge="1" parent="1" source="DLuYWQSgHfZuUuBgVUwF-14" target="DLuYWQSgHfZuUuBgVUwF-47">
          <mxGeometry width="80" relative="1" as="geometry">
            <mxPoint x="-730" y="2130" as="sourcePoint" />
            <mxPoint x="-650" y="2130" as="targetPoint" />
            <Array as="points">
              <mxPoint x="-80" y="2130" />
            </Array>
          </mxGeometry>
        </mxCell>
        <mxCell id="DLuYWQSgHfZuUuBgVUwF-60" value="return()" style="html=1;verticalAlign=bottom;endArrow=block;edgeStyle=elbowEdgeStyle;elbow=vertical;curved=0;rounded=0;" edge="1" parent="1" source="DLuYWQSgHfZuUuBgVUwF-47" target="DLuYWQSgHfZuUuBgVUwF-61">
          <mxGeometry x="-0.0062" width="80" relative="1" as="geometry">
            <mxPoint x="-130" y="2140" as="sourcePoint" />
            <mxPoint x="-50" y="2140" as="targetPoint" />
            <Array as="points">
              <mxPoint x="80" y="2150" />
            </Array>
            <mxPoint as="offset" />
          </mxGeometry>
        </mxCell>
      </root>
    </mxGraphModel>
  </diagram>
</mxfile>
